<svg id="Isolation_Mode" data-name="Isolation Mode" xmlns="http://www.w3.org/2000/svg" version="1.0" width="150.000000pt" height="150.000000pt" viewBox="0 0 150.000000 150.000000" preserveAspectRatio="xMidYMid meet">

<g transform="translate(0.000000,150.000000) scale(0.100000,-0.100000)" fill="#d83850" stroke="none">
<path d="M79 1456 c-2 -2 -3 -323 -1 -713 l3 -708 40 145 c80 286 203 579 314 744 134 202 322 370 547 491 l83 45 -491 0 c-270 0 -493 -2 -495 -4z"/>
<path d="M1028 1331 c-114 -109 -196 -216 -256 -336 -40 -78 -40 -80 -19 -83 45 -5 105 -25 217 -72 81 -34 144 -53 214 -64 56 -9 113 -25 131 -36 18 -11 35 -20 39 -20 4 0 21 30 38 66 24 52 32 83 36 152 11 194 -64 348 -219 451 -34 23 -65 41 -69 41 -5 0 -55 -44 -112 -99z"/>
<path d="M705 847 c-8 -20 -15 -39 -15 -42 0 -3 71 -5 158 -4 l157 1 -75 35 c-54 26 -94 37 -142 41 l-68 5 -15 -36z"/>
<path d="M1123 615 c-11 -8 -26 -28 -31 -45 -9 -25 -8 -30 5 -30 20 0 143 60 143 70 0 23 -86 27 -117 5z"/>
</g>
</svg>
